<?xml version="1.0" encoding="utf-8"?>
<!-- Generator: Adobe Illustrator 16.0.0, SVG Export Plug-In . SVG Version: 6.00 Build 0)  -->
<!DOCTYPE svg PUBLIC "-//W3C//DTD SVG 1.1//EN" "http://www.w3.org/Graphics/SVG/1.1/DTD/svg11.dtd">
<svg version="1.1" id="Layer_1" xmlns="http://www.w3.org/2000/svg" xmlns:xlink="http://www.w3.org/1999/xlink" x="0px" y="0px"
	 width="225.688px" height="341.284px" viewBox="0 0 225.688 341.284" enable-background="new 0 0 225.688 341.284"
	 xml:space="preserve">
<linearGradient id="SVGID_1_" gradientUnits="userSpaceOnUse" x1="41.5801" y1="159.9155" x2="187.2192" y2="305.5547">
	<stop  offset="0" style="stop-color:#8E030E"/>
	<stop  offset="1" style="stop-color:#3C0707"/>
</linearGradient>
<path fill="url(#SVGID_1_)" d="M217.351,232.743c0,25.92-9.57,49.6-25.36,67.7c-12.329,14.13-28.449,24.87-46.78,30.609
	c-1.15,0.36-2.31,0.7-3.49,1.011c-5.48,1.52-11.14,2.58-16.95,3.16c-1.16,0.119-2.33,0.22-3.51,0.289
	c-2.27,0.15-4.56,0.23-6.87,0.23c-0.74,0-1.47-0.01-2.21-0.02c-1.67-0.04-3.34-0.11-4.99-0.23c-5.39-0.37-10.66-1.16-15.79-2.33
	c-0.02,0-0.03-0.01-0.05-0.01c-0.8-0.18-1.6-0.38-2.4-0.58c-0.01,0-0.03-0.01-0.04-0.01c-0.53-0.13-1.05-0.271-1.58-0.42
	c-0.04-0.011-0.07-0.021-0.11-0.03c-19.6-5.351-36.87-16.34-49.95-31.12c-16.1-18.17-25.86-42.07-25.86-68.25
	c0-7.54,0.81-14.89,2.35-21.96c2.27-10.45,6.12-20.3,11.3-29.3c0.46-0.81,0.94-1.61,1.42-2.41c2.36-3.85,4.96-7.53,7.78-11.02
	c0.59-0.73,1.19-1.45,1.8-2.16c0.52-0.61,1.05-1.22,1.6-1.82c0.62-0.71,1.26-1.41,1.91-2.09c3.4-3.6,7.05-6.94,10.93-10.02
	c0.72-0.57,1.46-1.13,2.2-1.69c17.2-12.89,38.56-20.53,61.72-20.53c20.77,0,40.11,6.15,56.29,16.73c0.76,0.5,1.52,1.12,2.26,1.64
	c0.02,0.01,0.04,0.03,0.06,0.04c3.7,2.56,7.221,5.53,10.54,8.5c0.03,0.03,0.07,0.06,0.101,0.09h0.01c0.68,0,1.36,1.11,2.02,1.77
	c0.021,0.02,0.03,0.03,0.051,0.05c0.67,0.64,1.33,1.28,1.979,1.93c0.681,0.67,1.34,1.35,1.99,2.04c0.4,0.41,0.79,0.83,1.17,1.26
	c0,0.01,0.01,0.02,0.021,0.03c0.649,0.71,1.279,1.4,1.89,2.13l0.21,0.01c2.26,2.64,4.36,5.39,6.4,8.25c0.55,0.77,1.1,1.55,1.63,2.33
	c0.47,0.67,0.93,1.34,1.39,2.02v0.01c0,0.57,0.43,1.12,0.72,1.68l0.12,0.24c0.101,0.21,0.16,0.43,0.16,0.65v0.01
	c5.46,9.2,9.42,19.31,11.68,30.03C216.591,218.144,217.351,225.343,217.351,232.743z"/>
<path fill="none" stroke="#FFFFFF" stroke-width="5" stroke-miterlimit="10" d="M128.431,126.243"/>
<linearGradient id="SVGID_2_" gradientUnits="userSpaceOnUse" x1="62.5425" y1="30.8594" x2="169.3163" y2="137.6332">
	<stop  offset="0" style="stop-color:#8E030E"/>
	<stop  offset="1" style="stop-color:#3C0707"/>
</linearGradient>
<path fill="url(#SVGID_2_)" d="M191.431,84.243c0,41.7-33.8,75.5-75.5,75.5s-75.5-33.8-75.5-75.5c0-23.24,10.5-44.03,27.02-57.88
	c3.86-3.23,8.04-6.09,12.49-8.5c10.7-5.82,22.96-9.12,35.99-9.12c13.25,0,25.7,3.41,36.52,9.41c2.77,1.53,5.44,3.24,7.98,5.1
	C179.221,36.983,191.431,59.183,191.431,84.243z"/>
<path fill="none" stroke="#FFFFFF" stroke-width="5" stroke-miterlimit="10" d="M106.431,126.243"/>
<linearGradient id="SVGID_3_" gradientUnits="userSpaceOnUse" x1="86.4312" y1="91.7432" x2="108.4312" y2="91.7432">
	<stop  offset="0.1675" style="stop-color:#00A994"/>
	<stop  offset="0.6108" style="stop-color:#008A8C"/>
	<stop  offset="1" style="stop-color:#007479"/>
</linearGradient>
<linearGradient id="SVGID_4_" gradientUnits="userSpaceOnUse" x1="83.9312" y1="91.7432" x2="110.9312" y2="91.7432">
	<stop  offset="0.1675" style="stop-color:#C3CBBB"/>
	<stop  offset="0.3793" style="stop-color:#C6CEBD"/>
	<stop  offset="1" style="stop-color:#809290"/>
</linearGradient>
<ellipse fill="url(#SVGID_3_)" stroke="url(#SVGID_4_)" stroke-width="5" stroke-miterlimit="10" cx="97.431" cy="91.743" rx="11" ry="20"/>
<linearGradient id="SVGID_5_" gradientUnits="userSpaceOnUse" x1="128.4312" y1="91.7432" x2="150.4312" y2="91.7432">
	<stop  offset="0.1675" style="stop-color:#00A994"/>
	<stop  offset="0.6108" style="stop-color:#008A8C"/>
	<stop  offset="1" style="stop-color:#007479"/>
</linearGradient>
<linearGradient id="SVGID_6_" gradientUnits="userSpaceOnUse" x1="125.9312" y1="91.7432" x2="152.9312" y2="91.7432">
	<stop  offset="0.1675" style="stop-color:#C3CBBB"/>
	<stop  offset="0.3793" style="stop-color:#C6CEBD"/>
	<stop  offset="1" style="stop-color:#809290"/>
</linearGradient>
<ellipse fill="url(#SVGID_5_)" stroke="url(#SVGID_6_)" stroke-width="5" stroke-miterlimit="10" cx="139.431" cy="91.743" rx="11" ry="20"/>
<path fill="#CCCCCC" d="M183.681,156.743h-0.01c-0.03-0.03-0.07-0.06-0.101-0.09l-6.569,9.6c-2.78,2.16-5.86,2.1-9.21-0.2
	c-3.221-2.2-3.471-5.3-0.74-9.28l5.92-8.66c-0.74-0.52-1.5-1.14-2.26-1.64l-6.16,9.01c-1.72,2.56-2.44,4.88-2.16,6.98
	c0.271,2.09,1.521,3.89,3.75,5.42c3.06,2.09,5.98,2.6,8.76,1.53l-1.779,2.68l2.239,1.53l10.34-15.11
	C185.042,157.853,184.361,156.743,183.681,156.743z"/>
<path fill="#CCCCCC" d="M199.412,174.213c-1.49,1.71-2.98,2.85-4.53,3.44c-2.15,0.81-4.181,0.55-6.13-0.79
	c-1.41-0.96-2.4-2.11-3-3.45c-0.601-1.33-0.75-2.79-0.49-4.37l4.46-6.51c-0.65-0.69-1.31-1.37-1.99-2.04l-13.88,20.28l2.311,1.58
	l7.3-10.68c0.149,3.05,1.649,5.56,4.51,7.52c2.43,1.66,4.94,2.02,7.69,1.1c1.96-0.66,3.55-1.91,5.38-3.75
	C200.511,175.763,199.961,174.983,199.412,174.213z"/>
<path fill="#CCCCCC" d="M50.641,175.753l-14.58-9.86c-0.61,0.71-1.21,1.43-1.8,2.16l8.93,6.06c2.16,2.78,2.14,5.86-0.16,9.21
	c-2.2,3.22-5.28,3.47-9.26,0.74l-7.29-4.99c-0.48,0.8-0.96,1.6-1.42,2.41l7.44,5.08c2.56,1.72,4.88,2.44,6.98,2.16
	c2.09-0.27,3.89-1.52,5.42-3.75c2.09-3.06,2.6-5.98,1.53-8.76l2.68,1.78L50.641,175.753z"/>
<path fill="#CCCCCC" d="M47.241,167.243c3.05-0.15,5.56-1.65,7.52-4.51c1.66-2.43,2.02-4.94,1.1-7.69
	c-0.59-1.74-1.64-3.19-3.16-4.77c-0.74,0.56-1.48,1.12-2.2,1.69c1.31,1.26,2.22,2.54,2.72,3.86c0.81,2.15,0.55,4.18-0.79,6.13
	c-0.96,1.41-2.11,2.4-3.45,3c-1.33,0.6-2.79,0.75-4.37,0.49l-5.04-3.46c-0.65,0.68-1.29,1.38-1.91,2.09l18.68,12.78l1.58-2.31
	L47.241,167.243z"/>
<linearGradient id="SVGID_7_" gradientUnits="userSpaceOnUse" x1="79.9409" y1="28.4932" x2="152.4512" y2="28.4932">
	<stop  offset="0.1675" style="stop-color:#C3CBBB"/>
	<stop  offset="0.3793" style="stop-color:#C6CEBD"/>
	<stop  offset="1" style="stop-color:#809290"/>
</linearGradient>
<path fill="url(#SVGID_7_)" d="M152.451,17.653c-1.95,6.15-5.13,15.09-8.43,31.09h-55.87c-3.46-16-6.49-24.69-8.21-31.38
	c10.7-5.82,22.96-9.12,35.99-9.12C129.181,8.243,141.631,11.653,152.451,17.653z"/>
<polygon fill="#64FFF7" stroke="#B3B3B3" stroke-width="5" stroke-miterlimit="10" points="93.488,272.243 70.546,232.243 
	93.488,192.243 139.375,192.243 162.316,232.243 139.375,272.243 "/>
<circle fill="#64FFF7" stroke="#B3B3B3" stroke-width="3" stroke-miterlimit="10" cx="100.443" cy="226.378" r="5.865"/>
<circle fill="#64FFF7" stroke="#B3B3B3" stroke-miterlimit="10" cx="101.094" cy="245.728" r="2.516"/>
<circle fill="#64FFF7" stroke="#B3B3B3" stroke-width="3" stroke-miterlimit="10" cx="127.009" cy="216.565" r="9.813"/>
<polyline fill="#64FFF7" stroke="#B3B3B3" stroke-width="3" stroke-miterlimit="10" points="94.607,225.802 87.576,232.243 
	72.431,232.243 "/>
<line fill="#64FFF7" stroke="#B3B3B3" stroke-width="3" stroke-miterlimit="10" x1="105.431" y1="223.243" x2="119.431" y2="223.243"/>
<polyline fill="#64FFF7" stroke="#B3B3B3" stroke-miterlimit="10" points="108.431,212.243 111.056,212.243 111.598,212.243 
	113.431,214.243 117.431,214.243 "/>
<circle fill="#64FFF7" stroke="#B3B3B3" stroke-miterlimit="10" cx="106.943" cy="211.878" r="2.365"/>
<circle fill="#64FFF7" stroke="#B3B3B3" stroke-width="3" stroke-miterlimit="10" cx="126.705" cy="253.64" r="5.127"/>
<line fill="#64FFF7" stroke="#B3B3B3" stroke-miterlimit="10" x1="100.931" y1="232.743" x2="100.931" y2="242.743"/>
<polyline fill="#64FFF7" stroke="#B3B3B3" stroke-miterlimit="10" points="118.598,229.41 116.431,227.243 107.431,227.243 "/>
<circle fill="#B3B3B3" cx="119.015" cy="229.827" r="1.417"/>
<polyline fill="#64FFF7" stroke="#B3B3B3" stroke-miterlimit="10" points="116.015,231.297 113.96,229.243 105.431,229.243 "/>
<circle fill="#B3B3B3" cx="116.015" cy="231.827" r="1.417"/>
<polyline fill="#64FFF7" stroke="#B3B3B3" stroke-width="3" stroke-miterlimit="10" points="154.431,219.243 149.931,219.243 
	147.097,217.743 144.431,216.243 137.431,216.243 "/>
<line fill="#64FFF7" stroke="#B3B3B3" stroke-width="3" stroke-miterlimit="10" x1="126.931" y1="226.743" x2="126.931" y2="249.743"/>
<path fill="#999999" stroke="#CCCCCC" stroke-width="3" stroke-miterlimit="10" d="M61.591,271.373l-23.32,29.62
	c-16.1-18.17-25.86-42.07-25.86-68.25c0-7.54,0.81-14.89,2.35-21.96l37.17,17.84L61.591,271.373z"/>
<path fill="#999999" stroke="#CCCCCC" stroke-width="3" stroke-miterlimit="10" d="M216.351,232.743c0,25.92-9.57,49.6-25.36,67.7
	l-22.89-29.101l9.65-42.54l36.359-17.619C215.591,218.144,216.351,225.343,216.351,232.743z"/>
</svg>
